<svg xmlns="http://www.w3.org/2000/svg" xmlns:xlink="http://www.w3.org/1999/xlink" xmlns:serif="http://www.serif.com/" width="100%" height="100%" viewBox="0 0 300 200" version="1.1" xml:space="preserve" style="fill-rule:evenodd;clip-rule:evenodd;stroke-linecap:round;stroke-linejoin:round;stroke-miterlimit:1.5;"><g><path d="M86.759,77.681c0.757,-3.183 -1.212,-5.767 -4.395,-5.767l-12.616,-0c-3.182,-0 -6.381,2.584 -7.138,5.767l-2.745,11.533c-0.757,3.183 1.212,5.767 4.395,5.767l12.616,-0c3.183,-0 6.381,-2.584 7.139,-5.767l2.744,-11.533Z" style="fill:none;stroke:#000;stroke-width:1.08px;" id="87" class="active-el-class"></path><text x="67.643px" y="87.742px" style="font-family:'ArialMT', 'Arial', sans-serif;font-size:12px;">W</text></g><g><path d="M86.758,103.541c0.757,-3.183 -1.212,-5.767 -4.394,-5.767l-12.616,0c-3.183,0 -6.382,2.584 -7.139,5.767l-2.744,11.533c-0.757,3.183 1.212,5.767 4.394,5.767l12.616,-0c3.183,-0 6.382,-2.584 7.139,-5.767l2.744,-11.533Z" style="fill:none;stroke:#000;stroke-width:1.08px;" id="83" class="active-el-class"></path><text x="69.209px" y="113.749px" style="font-family:'ArialMT', 'Arial', sans-serif;font-size:12px;">S</text></g><g><path d="M114.407,103.541c0.758,-3.183 -1.211,-5.767 -4.394,-5.767l-12.616,0c-3.183,0 -6.382,2.584 -7.139,5.767l-2.744,11.533c-0.757,3.183 1.212,5.767 4.395,5.767l12.616,-0c3.182,-0 6.381,-2.584 7.138,-5.767l2.744,-11.533Z" style="fill:none;stroke:#000;stroke-width:1.08px;" id="68" class="active-el-class"></path><text x="96.471px" y="113.602px" style="font-family:'ArialMT', 'Arial', sans-serif;font-size:12px;">D</text></g><g><path d="M59.109,103.541c0.757,-3.183 -1.212,-5.767 -4.395,-5.767l-12.616,0c-3.182,0 -6.381,2.584 -7.138,5.767l-2.745,11.533c-0.757,3.183 1.212,5.767 4.395,5.767l12.616,-0c3.183,-0 6.381,-2.584 7.139,-5.767l2.744,-11.533Z" style="fill:none;stroke:#000;stroke-width:1.08px;" id="65" class="active-el-class"></path><text x="41.66px" y="113.602px" style="font-family:'ArialMT', 'Arial', sans-serif;font-size:12px;">A</text></g></svg>