<?xml version="1.0" ?><!DOCTYPE svg  PUBLIC '-//W3C//DTD SVG 1.1//EN'  'http://www.w3.org/Graphics/SVG/1.1/DTD/svg11.dtd'><svg enable-background="new 0 0 500 500" height="500px" id="Layer_1" version="1.1" viewBox="0 0 500 500" width="500px" xml:space="preserve" xmlns="http://www.w3.org/2000/svg" xmlns:xlink="http://www.w3.org/1999/xlink"><path clip-rule="evenodd" d="M404.452,168.231c0-45.153-36.616-81.77-81.768-81.77H177.317  c-16.904,0-31.169-11.539-35.162-27.256c0,0-1.181-2.999-1.181-4.543c0-12.536-10.177-22.713-22.713-22.713  c-12.539,0-22.713,10.177-22.713,22.713c0,1.726,0.175,3.363,0.548,4.996c4.721,40.706,39.245,72.23,81.221,72.23h145.368  c20.079,0,36.342,16.264,36.342,36.342H68.29c-20.077,0-36.34,16.264-36.34,36.343v227.137c0,20.078,16.264,36.34,36.34,36.34  h363.421c20.078,0,36.34-16.262,36.34-36.34V204.574c0-20.079-16.262-36.343-36.34-36.343H404.452z M299.97,213.658  c12.536,0,22.715,10.177,22.715,22.713c0,12.538-10.179,22.715-22.715,22.715s-22.712-10.177-22.712-22.715  C277.258,223.834,287.434,213.658,299.97,213.658z M299.97,295.427c12.536,0,22.715,10.179,22.715,22.715  c0,12.537-10.179,22.711-22.715,22.711s-22.712-10.174-22.712-22.711C277.258,305.605,287.434,295.427,299.97,295.427z   M200.03,213.658c12.537,0,22.713,10.177,22.713,22.713c0,12.538-10.177,22.715-22.713,22.715s-22.713-10.177-22.713-22.715  C177.317,223.834,187.494,213.658,200.03,213.658z M200.03,295.427c12.537,0,22.713,10.179,22.713,22.715  c0,12.537-10.177,22.711-22.713,22.711s-22.713-10.174-22.713-22.711C177.317,305.605,187.494,295.427,200.03,295.427z   M100.089,213.658c12.538,0,22.713,10.177,22.713,22.713c0,12.538-10.175,22.715-22.713,22.715  c-12.537,0-22.714-10.177-22.714-22.715C77.375,223.834,87.553,213.658,100.089,213.658z M100.089,295.427  c12.538,0,22.713,10.179,22.713,22.715c0,12.537-10.175,22.711-22.713,22.711c-12.537,0-22.714-10.174-22.714-22.711  C77.375,305.605,87.553,295.427,100.089,295.427z M100.089,377.198c12.538,0,22.713,10.175,22.713,22.711  c0,12.54-10.175,22.715-22.713,22.715c-12.537,0-22.714-10.175-22.714-22.715C77.375,387.373,87.553,377.198,100.089,377.198z   M399.909,213.658c12.54,0,22.715,10.177,22.715,22.713c0,12.538-10.175,22.715-22.715,22.715  c-12.536,0-22.711-10.177-22.711-22.715C377.198,223.834,387.373,213.658,399.909,213.658z M399.909,295.427  c12.54,0,22.715,10.179,22.715,22.715c0,12.537-10.175,22.711-22.715,22.711c-12.536,0-22.711-10.174-22.711-22.711  C377.198,305.605,387.373,295.427,399.909,295.427z M399.909,377.198c12.54,0,22.715,10.175,22.715,22.711  c0,12.54-10.175,22.715-22.715,22.715c-12.536,0-22.711-10.175-22.711-22.715C377.198,387.373,387.373,377.198,399.909,377.198z   M322.685,422.624H177.317c-9.991,0-18.172-8.18-18.172-18.172c0-9.987,8.181-18.168,18.172-18.168h145.368  c9.991,0,18.168,8.181,18.168,18.168C340.853,414.444,332.676,422.624,322.685,422.624z" fill="#010101" fill-rule="evenodd"/></svg>