<svg xmlns="http://www.w3.org/2000/svg" xmlns:xlink="http://www.w3.org/1999/xlink" xmlns:serif="http://www.serif.com/" width="100%" height="100%" viewBox="0 0 300 150" version="1.1" xml:space="preserve" style="fill-rule:evenodd;clip-rule:evenodd;stroke-linecap:round;stroke-linejoin:round;stroke-miterlimit:1.5;"><g><path d="M139.769,28.955l-16.038,0l-1.524,16.038l16.038,0l1.524,-16.038Z" style="fill:none;stroke:#000;stroke-width:1.45px;" id="54" class="active-el-class"></path><text x="126.961px" y="41.272px" style="font-family:'Montserrat-Black', 'Montserrat';font-weight:900;font-size:12.278px;">6</text></g><g><path d="M102.712,28.955l-16.038,0l-1.524,16.038l16.038,0l1.524,-16.038Z" style="fill:none;stroke:#000;stroke-width:1.45px;" id="52" class="active-el-class"></path><text x="89.566px" y="41.272px" style="font-family:'Montserrat-Black', 'Montserrat';font-weight:900;font-size:12.278px;">4</text></g><g><path d="M84.183,28.955l-16.038,0l-1.523,16.038l16.038,0l1.523,-16.038Z" style="fill:none;stroke:#000;stroke-width:1.45px;" id="51" class="active-el-class"></path><text x="71.995px" y="41.198px" style="font-family:'Montserrat-Black', 'Montserrat';font-weight:900;font-size:12.278px;">3</text></g><g><path d="M28.598,28.955l-16.038,0l-1.524,16.038l16.038,0l1.524,-16.038Z" style="fill:none;stroke:#000;stroke-width:1.45px;" id="96" class="active-el-class"></path><text x="15.016px" y="43.788px" style="font-family:'Montserrat-Black', 'Montserrat';font-weight:900;font-size:12.278px;">`</text></g><g><path d="M47.126,28.955l-16.038,0l-1.523,16.038l16.038,0l1.523,-16.038Z" style="fill:none;stroke:#000;stroke-width:1.45px;" id="49" class="active-el-class"></path><text x="36.406px" y="41.272px" style="font-family:'Montserrat-Black', 'Montserrat';font-weight:900;font-size:12.278px;">1</text></g><g><path d="M65.655,28.955l-16.038,0l-1.524,16.038l16.038,0l1.524,-16.038Z" style="fill:none;stroke:#000;stroke-width:1.45px;" id="50" class="active-el-class"></path><text x="53.418px" y="41.345px" style="font-family:'Montserrat-Black', 'Montserrat';font-weight:900;font-size:12.278px;">2</text></g><g><path d="M56.874,47.968l-16.038,0l-1.524,16.038l16.038,0l1.524,-16.038Z" style="fill:none;stroke:#000;stroke-width:1.45px;" id="81" class="active-el-class"></path><text x="42.654px" y="59.296px" style="font-family:'Montserrat-Black', 'Montserrat';font-weight:900;font-size:12.278px;">Q</text></g><g><path d="M61.343,66.981l-16.038,-0l-1.523,16.038l16.038,0l1.523,-16.038Z" style="fill:none;stroke:#000;stroke-width:1.45px;" id="65" class="active-el-class"></path><text x="47.615px" y="79.297px" style="font-family:'Montserrat-Black', 'Montserrat';font-weight:900;font-size:12.278px;">A</text></g><g><path d="M70.687,85.994l-16.038,-0l-1.524,16.038l16.038,-0l1.524,-16.038Z" style="fill:none;stroke:#000;stroke-width:1.45px;" id="90" class="active-el-class"></path><text x="57.566px" y="98.31px" style="font-family:'Montserrat-Black', 'Montserrat';font-weight:900;font-size:12.278px;">Z</text></g><g><path d="M38.345,105.007l-25.785,-0l-1.524,16.038l25.786,-0l1.523,-16.038Z" style="fill:none;stroke:#000;stroke-width:1.45px;" id="67" class="active-el-class"></path><text x="14.814px" y="116.675px" style="font-family:'Montserrat-Black', 'Montserrat';font-weight:900;font-size:10.053px;">Ctrl</text></g><g><path d="M61.458,105.007l-20.409,-0l-1.524,16.038l20.41,-0l1.523,-16.038Z" style="fill:none;stroke:#000;stroke-width:1.45px;"></path><path d="M54.438,113.308l-3.664,0l0,3.664l3.664,0l0,-3.664Zm-4.229,0l-3.664,0l0,3.664l3.664,0l0,-3.664Zm0,-4.229l-3.664,0l0,3.664l3.664,0l0,-3.664Zm4.229,0l-3.664,0l0,3.664l3.664,0l0,-3.664Z"></path></g><g><path d="M84.424,105.007l-20.262,-0l-1.524,16.038l20.263,-0l1.523,-16.038Z" style="fill:none;stroke:#000;stroke-width:1.45px;" id="65" class="active-el-class"></path><text x="66.024px" y="116.385px" style="font-family:'Montserrat-Black', 'Montserrat';font-weight:900;font-size:9.178px;">Al<tspan x="77.056px " y="116.385px ">t</tspan></text></g><path d="M191.049,105.007l-103.921,-0l-1.524,16.038l103.922,-0l1.523,-16.038Z" style="fill:none;stroke:#000;stroke-width:1.45px;"></path><g><path d="M214.549,105.007l-20.796,-0l-1.524,16.038l20.796,-0l1.524,-16.038Z" style="fill:none;stroke:#000;stroke-width:1.45px;" id="65" class="active-el-class"></path><text x="195.882px" y="116.385px" style="font-family:'Montserrat-Black', 'Montserrat';font-weight:900;font-size:9.178px;">Al<tspan x="206.914px " y="116.385px ">t</tspan></text></g><g><path d="M237.201,105.007l-19.948,-0l-1.524,16.038l19.948,-0l1.524,-16.038Z" style="fill:none;stroke:#000;stroke-width:1.45px;"></path><path d="M230.411,113.308l-3.664,0l0,3.664l3.664,0l0,-3.664Zm-4.228,0l-3.665,0l0,3.664l3.665,0l-0,-3.664Zm-0,-4.229l-3.665,0l0,3.664l3.665,0l-0,-3.664Zm4.228,0l-3.664,0l0,3.664l3.664,0l0,-3.664Z"></path></g><g><path d="M261.106,105.007l-21.202,-0l-1.523,16.038l21.201,-0l1.524,-16.038Z" style="fill:none;stroke:#000;stroke-width:1.45px;"></path><g><rect x="245.797" y="108.705" width="7.893" height="8.641" style="fill:none;stroke:#000;stroke-width:1.13px;stroke-linejoin:miter;"></rect><rect x="247.375" y="110.039" width="4.738" height="1.052"></rect><rect x="247.375" y="112.5" width="4.738" height="1.052"></rect><rect x="247.375" y="114.96" width="4.738" height="1.052"></rect></g></g><g><path d="M288.964,105.007l-25.155,-0l-1.523,16.038l25.154,-0l1.524,-16.038Z" style="fill:none;stroke:#000;stroke-width:1.45px;" id="67" class="active-el-class"></path><text x="265.748px" y="116.675px" style="font-family:'Montserrat-Black', 'Montserrat';font-weight:900;font-size:10.053px;">Ctrl</text></g><g><path d="M52.152,85.994l-39.592,-0l-1.524,16.038l39.592,-0l1.524,-16.038Z" style="fill:none;stroke:#000;stroke-width:1.45px;" id="83" class="active-el-class"></path><text x="18.221px" y="98.19px" style="font-family:'Montserrat-Black', 'Montserrat';font-weight:900;font-size:10.379px;">Shift</text></g><g><path d="M89.222,85.994l-16.038,-0l-1.524,16.038l16.038,-0l1.524,-16.038Z" style="fill:none;stroke:#000;stroke-width:1.45px;" id="88" class="active-el-class"></path><text x="75.763px" y="98.31px" style="font-family:'Montserrat-Black', 'Montserrat';font-weight:900;font-size:12.278px;">X</text></g><g><path d="M107.757,85.994l-16.038,-0l-1.524,16.038l16.038,-0l1.524,-16.038Z" style="fill:none;stroke:#000;stroke-width:1.45px;" id="67" class="active-el-class"></path><text x="94.298px" y="98.31px" style="font-family:'Montserrat-Black', 'Montserrat';font-weight:900;font-size:12.278px;">C</text></g><g><path d="M126.292,85.994l-16.038,-0l-1.524,16.038l16.038,-0l1.524,-16.038Z" style="fill:none;stroke:#000;stroke-width:1.45px;" id="86" class="active-el-class"></path><text x="112.686px" y="98.31px" style="font-family:'Montserrat-Black', 'Montserrat';font-weight:900;font-size:12.278px;">V</text></g><g><path d="M144.827,85.994l-16.038,-0l-1.524,16.038l16.038,-0l1.524,-16.038Z" style="fill:none;stroke:#000;stroke-width:1.45px;" id="66" class="active-el-class"></path><text x="131.111px" y="98.31px" style="font-family:'Montserrat-Black', 'Montserrat';font-weight:900;font-size:12.278px;">B</text></g><g><path d="M163.362,85.994l-16.038,-0l-1.524,16.038l16.038,-0l1.524,-16.038Z" style="fill:none;stroke:#000;stroke-width:1.45px;" id="78" class="active-el-class"></path><text x="149.646px" y="98.31px" style="font-family:'Montserrat-Black', 'Montserrat';font-weight:900;font-size:12.278px;">N</text></g><g><path d="M181.897,85.994l-16.038,-0l-1.524,16.038l16.038,-0l1.524,-16.038Z" style="fill:none;stroke:#000;stroke-width:1.45px;" id="77" class="active-el-class"></path><text x="167.26px" y="98.31px" style="font-family:'Montserrat-Black', 'Montserrat';font-weight:900;font-size:12.278px;">M</text></g><g><path d="M200.432,85.994l-16.038,-0l-1.524,16.038l16.038,-0l1.524,-16.038Z" style="fill:none;stroke:#000;stroke-width:1.45px;" id="44" class="active-el-class"></path><text x="189.785px" y="94.553px" style="font-family:'Montserrat-Black', 'Montserrat';font-weight:900;font-size:12.278px;">,</text></g><g><path d="M218.967,85.994l-16.038,-0l-1.524,16.038l16.038,-0l1.524,-16.038Z" style="fill:none;stroke:#000;stroke-width:1.45px;" id="46" class="active-el-class"></path><text x="208.32px" y="95.475px" style="font-family:'Montserrat-Black', 'Montserrat';font-weight:900;font-size:12.278px;">.</text></g><g><path d="M237.502,85.994l-16.038,-0l-1.524,16.038l16.038,-0l1.524,-16.038Z" style="fill:none;stroke:#000;stroke-width:1.45px;" id="47" class="active-el-class"></path><text x="225.959px" y="98.569px" style="font-family:'Montserrat-Black', 'Montserrat';font-weight:900;font-size:12.278px;">/</text></g><g><g id="83" class="active-el-class"><path d="M288.964,85.994l-48.965,-0l-1.524,16.038l48.965,-0l1.524,-16.038Z" style="fill:none;stroke:#000;stroke-width:1.45px;"></path></g><text x="250.346px" y="98.19px" style="font-family:'Montserrat-Black', 'Montserrat';font-weight:900;font-size:10.379px;">Shift</text></g><g><path d="M42.784,67.367l-30.224,-0l-1.524,16.038l30.224,-0l1.524,-16.038Z" style="fill:none;stroke:#000;stroke-width:1.45px;" id="67" class="active-el-class"></path><text x="14.544px" y="77.814px" style="font-family:'Montserrat-Black', 'Montserrat';font-weight:900;font-size:9.301px;">Caps</text></g><g><path d="M79.903,66.981l-16.038,-0l-1.524,16.038l16.038,0l1.524,-16.038Z" style="fill:none;stroke:#000;stroke-width:1.45px;" id="83" class="active-el-class"></path><text x="67.089px" y="79.297px" style="font-family:'Montserrat-Black', 'Montserrat';font-weight:900;font-size:12.278px;">S</text></g><g><path d="M98.462,66.981l-16.038,-0l-1.523,16.038l16.038,0l1.523,-16.038Z" style="fill:none;stroke:#000;stroke-width:1.45px;" id="68" class="active-el-class"></path><text x="84.439px" y="79.297px" style="font-family:'Montserrat-Black', 'Montserrat';font-weight:900;font-size:12.278px;">D</text></g><g><path d="M117.022,66.981l-16.038,-0l-1.524,16.038l16.038,0l1.524,-16.038Z" style="fill:none;stroke:#000;stroke-width:1.45px;" id="70" class="active-el-class"></path><text x="104.048px" y="79.297px" style="font-family:'Montserrat-Black', 'Montserrat';font-weight:900;font-size:12.278px;">F</text></g><g><path d="M135.581,66.981l-16.038,-0l-1.523,16.038l16.038,0l1.523,-16.038Z" style="fill:none;stroke:#000;stroke-width:1.45px;" id="71" class="active-el-class"></path><text x="122.049px" y="79.297px" style="font-family:'Montserrat-Black', 'Montserrat';font-weight:900;font-size:12.278px;">G</text></g><g><path d="M154.141,66.981l-16.038,-0l-1.524,16.038l16.038,0l1.524,-16.038Z" style="fill:none;stroke:#000;stroke-width:1.45px;" id="72" class="active-el-class"></path><text x="140.425px" y="79.297px" style="font-family:'Montserrat-Black', 'Montserrat';font-weight:900;font-size:12.278px;">H</text></g><g><path d="M172.701,66.981l-16.038,-0l-1.524,16.038l16.038,0l1.524,-16.038Z" style="fill:none;stroke:#000;stroke-width:1.45px;" id="74" class="active-el-class"></path><text x="160.856px" y="79.199px" style="font-family:'Montserrat-Black', 'Montserrat';font-weight:900;font-size:12.278px;">J</text></g><g><path d="M191.26,66.981l-16.038,-0l-1.523,16.038l16.038,0l1.523,-16.038Z" style="fill:none;stroke:#000;stroke-width:1.45px;" id="75" class="active-el-class"></path><text x="177.28px" y="79.297px" style="font-family:'Montserrat-Black', 'Montserrat';font-weight:900;font-size:12.278px;">K</text></g><g><path d="M209.82,66.981l-16.038,-0l-1.524,16.038l16.038,0l1.524,-16.038Z" style="fill:none;stroke:#000;stroke-width:1.45px;" id="76" class="active-el-class"></path><text x="196.95px" y="79.297px" style="font-family:'Montserrat-Black', 'Montserrat';font-weight:900;font-size:12.278px;">L</text></g><g><path d="M228.379,66.981l-16.038,-0l-1.523,16.038l16.038,0l1.523,-16.038Z" style="fill:none;stroke:#000;stroke-width:1.45px;" id="59" class="active-el-class"></path><text x="217.732px" y="77.436px" style="font-family:'Montserrat-Black', 'Montserrat';font-weight:900;font-size:12.278px;">;</text></g><g><path d="M246.939,66.981l-16.038,-0l-1.524,16.038l16.038,0l1.524,-16.038Z" style="fill:none;stroke:#000;stroke-width:1.45px;" id="39" class="active-el-class"></path><text x="236.593px" y="81.753px" style="font-family:'Montserrat-Black', 'Montserrat';font-weight:900;font-size:12.278px;">'</text></g><g><g id="69" class="active-el-class"><g><path d="M288.964,66.981l-39.504,-0l-1.523,16.038l39.503,0l1.524,-16.038Z" style="fill:none;stroke:#000;stroke-width:1.45px;"></path></g></g><text x="251.943px" y="78.833px" style="font-family:'Montserrat-Black', 'Montserrat';font-weight:900;font-size:11.109px;">Ent<tspan x="272.161px " y="78.833px ">e</tspan>r</text></g><g><path d="M38.345,47.968l-25.785,0l-1.524,16.038l25.786,0l1.523,-16.038Z" style="fill:none;stroke:#000;stroke-width:1.45px;" id="84" class="active-el-class"></path><text x="16.153px" y="59.191px" style="font-family:'Montserrat-Black', 'Montserrat';font-weight:900;font-size:8.752px;">T<tspan x="21.658px " y="59.191px ">a</tspan>b</text></g><g><path d="M75.402,47.968l-16.038,0l-1.523,16.038l16.038,0l1.523,-16.038Z" style="fill:none;stroke:#000;stroke-width:1.45px;" id="87" class="active-el-class"></path><text x="60.391px" y="60.284px" style="font-family:'Montserrat-Black', 'Montserrat';font-weight:900;font-size:12.278px;">W</text></g><g><path d="M93.931,47.968l-16.038,0l-1.524,16.038l16.038,0l1.524,-16.038Z" style="fill:none;stroke:#000;stroke-width:1.45px;" id="69" class="active-el-class"></path><text x="80.878px" y="60.284px" style="font-family:'Montserrat-Black', 'Montserrat';font-weight:900;font-size:12.278px;">E</text></g><g><path d="M112.459,47.968l-16.038,0l-1.523,16.038l16.038,0l1.523,-16.038Z" style="fill:none;stroke:#000;stroke-width:1.45px;" id="82" class="active-el-class"></path><text x="98.86px" y="60.284px" style="font-family:'Montserrat-Black', 'Montserrat';font-weight:900;font-size:12.278px;">R</text></g><g><path d="M130.988,47.968l-16.038,0l-1.524,16.038l16.038,0l1.524,-16.038Z" style="fill:none;stroke:#000;stroke-width:1.45px;" id="84" class="active-el-class"></path><text x="118.192px" y="60.284px" style="font-family:'Montserrat-Black', 'Montserrat';font-weight:900;font-size:12.278px;">T</text></g><g><path d="M149.517,47.968l-16.039,0l-1.523,16.038l16.038,0l1.524,-16.038Z" style="fill:none;stroke:#000;stroke-width:1.45px;" id="89" class="active-el-class"></path><text x="136.377px" y="60.284px" style="font-family:'Montserrat-Black', 'Montserrat';font-weight:900;font-size:12.278px;">Y</text></g><g><path d="M168.045,47.968l-16.038,0l-1.524,16.038l16.039,0l1.523,-16.038Z" style="fill:none;stroke:#000;stroke-width:1.45px;" id="85" class="active-el-class"></path><text x="154.451px" y="60.186px" style="font-family:'Montserrat-Black', 'Montserrat';font-weight:900;font-size:12.278px;">U</text></g><g><path d="M186.574,47.968l-16.038,0l-1.524,16.038l16.038,0l1.524,-16.038Z" style="fill:none;stroke:#000;stroke-width:1.45px;" id="73" class="active-el-class"></path><text x="175.644px" y="60.284px" style="font-family:'Montserrat-Black', 'Montserrat';font-weight:900;font-size:12.278px;">I</text></g><g><path d="M205.102,47.968l-16.038,0l-1.523,16.038l16.038,0l1.523,-16.038Z" style="fill:none;stroke:#000;stroke-width:1.45px;" id="79" class="active-el-class"></path><text x="191.116px" y="60.284px" style="font-family:'Montserrat-Black', 'Montserrat';font-weight:900;font-size:12.278px;">O</text></g><g><path d="M223.631,47.968l-16.038,0l-1.524,16.038l16.038,0l1.524,-16.038Z" style="fill:none;stroke:#000;stroke-width:1.45px;" id="80" class="active-el-class"></path><text x="210.123px" y="60.284px" style="font-family:'Montserrat-Black', 'Montserrat';font-weight:900;font-size:12.278px;">P</text></g><g><path d="M242.159,47.968l-16.038,0l-1.523,16.038l16.038,0l1.523,-16.038Z" style="fill:none;stroke:#000;stroke-width:1.45px;" id="91" class="active-el-class"></path><text x="230.573px" y="59.351px" style="font-family:'Montserrat-Black', 'Montserrat';font-weight:900;font-size:12.278px;">[</text></g><g><path d="M260.688,47.968l-16.038,0l-1.524,16.038l16.038,0l1.524,-16.038Z" style="fill:none;stroke:#000;stroke-width:1.45px;" id="93" class="active-el-class"></path><text x="249.678px" y="59.351px" style="font-family:'Montserrat-Black', 'Montserrat';font-weight:900;font-size:12.278px;">]</text></g><g><path d="M288.964,47.968l-25.786,0l-1.523,16.038l25.785,0l1.524,-16.038Z" style="fill:none;stroke:#000;stroke-width:1.45px;" id="92" class="active-el-class"></path><text x="272.67px" y="60.543px" style="font-family:'Montserrat-Black', 'Montserrat';font-weight:900;font-size:12.278px;">\</text></g><g><path d="M121.24,28.955l-16.038,0l-1.523,16.038l16.038,0l1.523,-16.038Z" style="fill:none;stroke:#000;stroke-width:1.45px;" id="53" class="active-el-class"></path><text x="108.911px" y="41.198px" style="font-family:'Montserrat-Black', 'Montserrat';font-weight:900;font-size:12.278px;">5</text></g><g><path d="M158.297,28.955l-16.038,0l-1.523,16.038l16.038,0l1.523,-16.038Z" style="fill:none;stroke:#000;stroke-width:1.45px;" id="55" class="active-el-class"></path><text x="145.753px" y="41.272px" style="font-family:'Montserrat-Black', 'Montserrat';font-weight:900;font-size:12.278px;">7</text></g><g><path d="M176.826,28.955l-16.038,0l-1.524,16.038l16.038,0l1.524,-16.038Z" style="fill:none;stroke:#000;stroke-width:1.45px;" id="56" class="active-el-class"></path><text x="163.993px" y="41.272px" style="font-family:'Montserrat-Black', 'Montserrat';font-weight:900;font-size:12.278px;">8</text></g><g><path d="M195.354,28.955l-16.038,0l-1.523,16.038l16.038,0l1.523,-16.038Z" style="fill:none;stroke:#000;stroke-width:1.45px;" id="57" class="active-el-class"></path><text x="182.78px" y="41.272px" style="font-family:'Montserrat-Black', 'Montserrat';font-weight:900;font-size:12.278px;">9</text></g><g><path d="M213.883,28.955l-16.038,0l-1.524,16.038l16.038,0l1.524,-16.038Z" style="fill:none;stroke:#000;stroke-width:1.45px;" id="48" class="active-el-class"></path><text x="200.94px" y="41.272px" style="font-family:'Montserrat-Black', 'Montserrat';font-weight:900;font-size:12.278px;">0</text></g><g><path d="M232.411,28.955l-16.038,0l-1.523,16.038l16.038,0l1.523,-16.038Z" style="fill:none;stroke:#000;stroke-width:1.45px;" id="45" class="active-el-class"></path><text x="221.255px" y="40.43px" style="font-family:'Montserrat-Black', 'Montserrat';font-weight:900;font-size:12.278px;">-</text></g><g><path d="M250.94,28.955l-16.038,0l-1.524,16.038l16.038,0l1.524,-16.038Z" style="fill:none;stroke:#000;stroke-width:1.45px;" id="61" class="active-el-class"></path><text x="238.476px" y="41.272px" style="font-family:'Montserrat-Black', 'Montserrat';font-weight:900;font-size:12.278px;">=</text></g><g><g id="66" class="active-el-class"><path d="M288.964,28.955l-35.534,0l-1.523,16.038l35.533,0l1.524,-16.038Z" style="fill:none;stroke:#000;stroke-width:1.45px;"></path></g><text x="254.142px" y="38.48px" style="font-family:'Montserrat-Black', 'Montserrat';font-weight:900;font-size:5.496px;">Backsp<tspan x="276.022px " y="38.48px ">a</tspan>ce</text></g></svg>