<svg width="100%" height="100%" viewBox="0 0 600 400" version="1.1" xmlns="http://www.w3.org/2000/svg" xmlns:xlink="http://www.w3.org/1999/xlink" xml:space="preserve" xmlns:serif="http://www.serif.com/" style="fill-rule:evenodd;clip-rule:evenodd;stroke-linecap:round;stroke-linejoin:round;stroke-miterlimit:1.5;">
    <g>
        <g transform="matrix(0.658418,0,-0.178499,0.658418,-6.65934,-37.5674)">
            <path d="M299.261,205.376C299.261,205.015 299.081,204.63 298.773,204.333C298.466,204.036 298.066,203.862 297.693,203.862C291.914,203.862 271.909,203.862 267.377,203.862C266.836,203.862 266.46,204.225 266.46,204.748C266.46,209.41 266.46,231.12 266.46,237.074C266.46,237.434 266.64,237.82 266.948,238.116C267.255,238.413 267.654,238.587 268.028,238.587C273.806,238.587 293.812,238.587 298.343,238.587C298.885,238.587 299.261,238.224 299.261,237.701C299.261,233.039 299.261,211.329 299.261,205.376Z" style="fill:none;stroke:white;stroke-width:1.74px;"/>
        </g>
        <g transform="matrix(3.40815,0,0,3.40815,-135.192,-302.853)">
            <text x="79.15px" y="128.393px" style="font-family:'ArialMT', 'Arial', sans-serif;font-size:12px;">`</text>
        </g>
    </g>
    <g transform="matrix(0.658418,0,-0.178499,0.658418,20.6506,-37.5674)">
        <path d="M299.261,205.376C299.261,205.015 299.081,204.63 298.773,204.333C298.466,204.036 298.066,203.862 297.693,203.862C291.914,203.862 271.909,203.862 267.377,203.862C266.836,203.862 266.46,204.225 266.46,204.748C266.46,209.41 266.46,231.12 266.46,237.074C266.46,237.434 266.64,237.82 266.948,238.116C267.255,238.413 267.654,238.587 268.028,238.587C273.806,238.587 293.812,238.587 298.343,238.587C298.885,238.587 299.261,238.224 299.261,237.701C299.261,233.039 299.261,211.329 299.261,205.376Z" style="fill:none;stroke:white;stroke-width:1.74px;"/>
    </g>
    <g transform="matrix(0.658418,0,-0.178499,0.658418,31.4444,-11.0865)">
        <path d="M299.261,205.376C299.261,205.015 299.081,204.63 298.773,204.333C298.466,204.036 298.066,203.862 297.693,203.862C291.914,203.862 271.909,203.862 267.377,203.862C266.836,203.862 266.46,204.225 266.46,204.748C266.46,209.41 266.46,231.12 266.46,237.074C266.46,237.434 266.64,237.82 266.948,238.116C267.255,238.413 267.654,238.587 268.028,238.587C273.806,238.587 293.812,238.587 298.343,238.587C298.885,238.587 299.261,238.224 299.261,237.701C299.261,233.039 299.261,211.329 299.261,205.376Z" style="fill:none;stroke:white;stroke-width:1.74px;"/>
    </g>
    <g transform="matrix(0.658418,0,-0.178499,0.658418,38.3921,15.3943)">
        <path d="M299.261,205.376C299.261,205.015 299.081,204.63 298.773,204.333C298.466,204.036 298.066,203.862 297.693,203.862C291.914,203.862 271.909,203.862 267.377,203.862C266.836,203.862 266.46,204.225 266.46,204.748C266.46,209.41 266.46,231.12 266.46,237.074C266.46,237.434 266.64,237.82 266.948,238.116C267.255,238.413 267.654,238.587 268.028,238.587C273.806,238.587 293.812,238.587 298.343,238.587C298.885,238.587 299.261,238.224 299.261,237.701C299.261,233.039 299.261,211.329 299.261,205.376Z" style="fill:none;stroke:white;stroke-width:1.74px;"/>
    </g>
    <g transform="matrix(0.658418,0,-0.178499,0.658418,47.7071,41.8752)">
        <path d="M299.261,205.376C299.261,205.015 299.081,204.63 298.773,204.333C298.466,204.036 298.066,203.862 297.693,203.862C291.914,203.862 271.909,203.862 267.377,203.862C266.836,203.862 266.46,204.225 266.46,204.748C266.46,209.41 266.46,231.12 266.46,237.074C266.46,237.434 266.64,237.82 266.948,238.116C267.255,238.413 267.654,238.587 268.028,238.587C273.806,238.587 293.812,238.587 298.343,238.587C298.885,238.587 299.261,238.224 299.261,237.701C299.261,233.039 299.261,211.329 299.261,205.376Z" style="fill:none;stroke:white;stroke-width:1.74px;"/>
    </g>
    <g transform="matrix(0.658418,0,-0.178499,0.658418,31.4444,68.3561)">
        <path d="M299.261,205.376C299.261,205.015 299.081,204.63 298.773,204.333C298.466,204.036 298.066,203.862 297.693,203.862C291.914,203.862 271.909,203.862 267.377,203.862C266.836,203.862 266.46,204.225 266.46,204.748C266.46,209.41 266.46,231.12 266.46,237.074C266.46,237.434 266.64,237.82 266.948,238.116C267.255,238.413 267.654,238.587 268.028,238.587C273.806,238.587 293.812,238.587 298.343,238.587C298.885,238.587 299.261,238.224 299.261,237.701C299.261,233.039 299.261,211.329 299.261,205.376Z" style="fill:none;stroke:white;stroke-width:1.74px;"/>
    </g>
    <g transform="matrix(0.658418,0,-0.178499,0.658418,75.017,41.8752)">
        <path d="M299.261,205.376C299.261,205.015 299.081,204.63 298.773,204.333C298.466,204.036 298.066,203.862 297.693,203.862C291.914,203.862 271.909,203.862 267.377,203.862C266.836,203.862 266.46,204.225 266.46,204.748C266.46,209.41 266.46,231.12 266.46,237.074C266.46,237.434 266.64,237.82 266.948,238.116C267.255,238.413 267.654,238.587 268.028,238.587C273.806,238.587 293.812,238.587 298.343,238.587C298.885,238.587 299.261,238.224 299.261,237.701C299.261,233.039 299.261,211.329 299.261,205.376Z" style="fill:none;stroke:white;stroke-width:1.74px;"/>
    </g>
    <g transform="matrix(0.658418,0,-0.178499,0.658418,102.327,41.8752)">
        <path d="M299.261,205.376C299.261,205.015 299.081,204.63 298.773,204.333C298.466,204.036 298.066,203.862 297.693,203.862C291.914,203.862 271.909,203.862 267.377,203.862C266.836,203.862 266.46,204.225 266.46,204.748C266.46,209.41 266.46,231.12 266.46,237.074C266.46,237.434 266.64,237.82 266.948,238.116C267.255,238.413 267.654,238.587 268.028,238.587C273.806,238.587 293.812,238.587 298.343,238.587C298.885,238.587 299.261,238.224 299.261,237.701C299.261,233.039 299.261,211.329 299.261,205.376Z" style="fill:none;stroke:white;stroke-width:1.74px;"/>
    </g>
    <g transform="matrix(0.658418,0,-0.178499,0.658418,129.637,41.8752)">
        <path d="M299.261,205.376C299.261,205.015 299.081,204.63 298.773,204.333C298.466,204.036 298.066,203.862 297.693,203.862C291.914,203.862 271.909,203.862 267.377,203.862C266.836,203.862 266.46,204.225 266.46,204.748C266.46,209.41 266.46,231.12 266.46,237.074C266.46,237.434 266.64,237.82 266.948,238.116C267.255,238.413 267.654,238.587 268.028,238.587C273.806,238.587 293.812,238.587 298.343,238.587C298.885,238.587 299.261,238.224 299.261,237.701C299.261,233.039 299.261,211.329 299.261,205.376Z" style="fill:none;stroke:white;stroke-width:1.74px;"/>
    </g>
    <g transform="matrix(0.658418,0,-0.178499,0.658418,156.947,41.8752)">
        <path d="M299.261,205.376C299.261,205.015 299.081,204.63 298.773,204.333C298.466,204.036 298.066,203.862 297.693,203.862C291.914,203.862 271.909,203.862 267.377,203.862C266.836,203.862 266.46,204.225 266.46,204.748C266.46,209.41 266.46,231.12 266.46,237.074C266.46,237.434 266.64,237.82 266.948,238.116C267.255,238.413 267.654,238.587 268.028,238.587C273.806,238.587 293.812,238.587 298.343,238.587C298.885,238.587 299.261,238.224 299.261,237.701C299.261,233.039 299.261,211.329 299.261,205.376Z" style="fill:none;stroke:white;stroke-width:1.74px;"/>
    </g>
    <g transform="matrix(0.658418,0,-0.178499,0.658418,184.257,41.8752)">
        <path d="M299.261,205.376C299.261,205.015 299.081,204.63 298.773,204.333C298.466,204.036 298.066,203.862 297.693,203.862C291.914,203.862 271.909,203.862 267.377,203.862C266.836,203.862 266.46,204.225 266.46,204.748C266.46,209.41 266.46,231.12 266.46,237.074C266.46,237.434 266.64,237.82 266.948,238.116C267.255,238.413 267.654,238.587 268.028,238.587C273.806,238.587 293.812,238.587 298.343,238.587C298.885,238.587 299.261,238.224 299.261,237.701C299.261,233.039 299.261,211.329 299.261,205.376Z" style="fill:none;stroke:white;stroke-width:1.74px;"/>
    </g>
    <g transform="matrix(0.658418,0,-0.178499,0.658418,211.567,41.8752)">
        <path d="M299.261,205.376C299.261,205.015 299.081,204.63 298.773,204.333C298.466,204.036 298.066,203.862 297.693,203.862C291.914,203.862 271.909,203.862 267.377,203.862C266.836,203.862 266.46,204.225 266.46,204.748C266.46,209.41 266.46,231.12 266.46,237.074C266.46,237.434 266.64,237.82 266.948,238.116C267.255,238.413 267.654,238.587 268.028,238.587C273.806,238.587 293.812,238.587 298.343,238.587C298.885,238.587 299.261,238.224 299.261,237.701C299.261,233.039 299.261,211.329 299.261,205.376Z" style="fill:none;stroke:white;stroke-width:1.74px;"/>
    </g>
    <g transform="matrix(0.658418,0,-0.178499,0.658418,238.877,41.8752)">
        <path d="M299.261,205.376C299.261,205.015 299.081,204.63 298.773,204.333C298.466,204.036 298.066,203.862 297.693,203.862C291.914,203.862 271.909,203.862 267.377,203.862C266.836,203.862 266.46,204.225 266.46,204.748C266.46,209.41 266.46,231.12 266.46,237.074C266.46,237.434 266.64,237.82 266.948,238.116C267.255,238.413 267.654,238.587 268.028,238.587C273.806,238.587 293.812,238.587 298.343,238.587C298.885,238.587 299.261,238.224 299.261,237.701C299.261,233.039 299.261,211.329 299.261,205.376Z" style="fill:none;stroke:white;stroke-width:1.74px;"/>
    </g>
    <g transform="matrix(0.658418,0,-0.178499,0.658418,266.187,41.8752)">
        <path d="M299.261,205.376C299.261,205.015 299.081,204.63 298.773,204.333C298.466,204.036 298.066,203.862 297.693,203.862C291.914,203.862 271.909,203.862 267.377,203.862C266.836,203.862 266.46,204.225 266.46,204.748C266.46,209.41 266.46,231.12 266.46,237.074C266.46,237.434 266.64,237.82 266.948,238.116C267.255,238.413 267.654,238.587 268.028,238.587C273.806,238.587 293.812,238.587 298.343,238.587C298.885,238.587 299.261,238.224 299.261,237.701C299.261,233.039 299.261,211.329 299.261,205.376Z" style="fill:none;stroke:white;stroke-width:1.74px;"/>
    </g>
    <g transform="matrix(0.658418,0,-0.178499,0.658418,293.497,41.8752)">
        <path d="M299.261,205.376C299.261,205.015 299.081,204.63 298.773,204.333C298.466,204.036 298.066,203.862 297.693,203.862C291.914,203.862 271.909,203.862 267.377,203.862C266.836,203.862 266.46,204.225 266.46,204.748C266.46,209.41 266.46,231.12 266.46,237.074C266.46,237.434 266.64,237.82 266.948,238.116C267.255,238.413 267.654,238.587 268.028,238.587C273.806,238.587 293.812,238.587 298.343,238.587C298.885,238.587 299.261,238.224 299.261,237.701C299.261,233.039 299.261,211.329 299.261,205.376Z" style="fill:none;stroke:white;stroke-width:1.74px;"/>
    </g>
    <g transform="matrix(0.658418,0,-0.178499,0.658418,301.747,68.3561)">
        <path d="M299.261,205.376C299.261,205.015 299.081,204.63 298.773,204.333C298.466,204.036 298.066,203.862 297.693,203.862C291.914,203.862 271.909,203.862 267.377,203.862C266.836,203.862 266.46,204.225 266.46,204.748C266.46,209.41 266.46,231.12 266.46,237.074C266.46,237.434 266.64,237.82 266.948,238.116C267.255,238.413 267.654,238.587 268.028,238.587C273.806,238.587 293.812,238.587 298.343,238.587C298.885,238.587 299.261,238.224 299.261,237.701C299.261,233.039 299.261,211.329 299.261,205.376Z" style="fill:none;stroke:white;stroke-width:1.74px;"/>
    </g>
    <g transform="matrix(0.658418,0,-0.178499,0.658418,329.056,68.3561)">
        <path d="M299.261,205.376C299.261,205.015 299.081,204.63 298.773,204.333C298.466,204.036 298.066,203.862 297.693,203.862C291.914,203.862 271.909,203.862 267.377,203.862C266.836,203.862 266.46,204.225 266.46,204.748C266.46,209.41 266.46,231.12 266.46,237.074C266.46,237.434 266.64,237.82 266.948,238.116C267.255,238.413 267.654,238.587 268.028,238.587C273.806,238.587 293.812,238.587 298.343,238.587C298.885,238.587 299.261,238.224 299.261,237.701C299.261,233.039 299.261,211.329 299.261,205.376Z" style="fill:none;stroke:white;stroke-width:1.74px;"/>
    </g>
    <g transform="matrix(0.658418,0,-0.178499,0.658418,355.307,68.3561)">
        <path d="M321.44,205.376C321.44,205.015 321.26,204.63 320.952,204.333C320.645,204.036 320.246,203.862 319.872,203.862C314.094,203.862 271.909,203.862 267.377,203.862C266.836,203.862 266.46,204.225 266.46,204.748C266.46,209.41 266.46,231.12 266.46,237.074C266.46,237.434 266.64,237.82 266.948,238.116C267.255,238.413 267.654,238.587 268.028,238.587C273.806,238.587 315.991,238.587 320.523,238.587C321.064,238.587 321.44,238.224 321.44,237.701C321.44,233.039 321.44,211.329 321.44,205.376Z" style="fill:none;stroke:white;stroke-width:1.74px;"/>
    </g>
    <g transform="matrix(0.658418,0,-0.178499,0.658418,-7.55769,41.8752)">
        <path d="M341.76,205.376C341.76,205.015 341.58,204.63 341.273,204.333C340.965,204.036 340.566,203.862 340.192,203.862C334.414,203.862 271.909,203.862 267.377,203.862C266.836,203.862 266.46,204.225 266.46,204.748C266.46,209.41 266.46,231.12 266.46,237.074C266.46,237.434 266.64,237.82 266.948,238.116C267.255,238.413 267.654,238.587 268.028,238.587C273.806,238.587 336.311,238.587 340.843,238.587C341.384,238.587 341.76,238.224 341.76,237.701C341.76,233.039 341.76,211.329 341.76,205.376Z" style="fill:none;stroke:white;stroke-width:1.74px;"/>
    </g>
    <g transform="matrix(0.658418,0,-0.178499,0.658418,65.702,15.3943)">
        <path d="M299.261,205.376C299.261,205.015 299.081,204.63 298.773,204.333C298.466,204.036 298.066,203.862 297.693,203.862C291.914,203.862 271.909,203.862 267.377,203.862C266.836,203.862 266.46,204.225 266.46,204.748C266.46,209.41 266.46,231.12 266.46,237.074C266.46,237.434 266.64,237.82 266.948,238.116C267.255,238.413 267.654,238.587 268.028,238.587C273.806,238.587 293.812,238.587 298.343,238.587C298.885,238.587 299.261,238.224 299.261,237.701C299.261,233.039 299.261,211.329 299.261,205.376Z" style="fill:none;stroke:white;stroke-width:1.74px;"/>
    </g>
    <g transform="matrix(0.658418,0,-0.178499,0.658418,93.012,15.3943)">
        <path d="M299.261,205.376C299.261,205.015 299.081,204.63 298.773,204.333C298.466,204.036 298.066,203.862 297.693,203.862C291.914,203.862 271.909,203.862 267.377,203.862C266.836,203.862 266.46,204.225 266.46,204.748C266.46,209.41 266.46,231.12 266.46,237.074C266.46,237.434 266.64,237.82 266.948,238.116C267.255,238.413 267.654,238.587 268.028,238.587C273.806,238.587 293.812,238.587 298.343,238.587C298.885,238.587 299.261,238.224 299.261,237.701C299.261,233.039 299.261,211.329 299.261,205.376Z" style="fill:none;stroke:white;stroke-width:1.74px;"/>
    </g>
    <g transform="matrix(0.658418,0,-0.178499,0.658418,120.322,15.3943)">
        <path d="M299.261,205.376C299.261,205.015 299.081,204.63 298.773,204.333C298.466,204.036 298.066,203.862 297.693,203.862C291.914,203.862 271.909,203.862 267.377,203.862C266.836,203.862 266.46,204.225 266.46,204.748C266.46,209.41 266.46,231.12 266.46,237.074C266.46,237.434 266.64,237.82 266.948,238.116C267.255,238.413 267.654,238.587 268.028,238.587C273.806,238.587 293.812,238.587 298.343,238.587C298.885,238.587 299.261,238.224 299.261,237.701C299.261,233.039 299.261,211.329 299.261,205.376Z" style="fill:none;stroke:white;stroke-width:1.74px;"/>
    </g>
    <g transform="matrix(0.658418,0,-0.178499,0.658418,147.632,15.3943)">
        <path d="M299.261,205.376C299.261,205.015 299.081,204.63 298.773,204.333C298.466,204.036 298.066,203.862 297.693,203.862C291.914,203.862 271.909,203.862 267.377,203.862C266.836,203.862 266.46,204.225 266.46,204.748C266.46,209.41 266.46,231.12 266.46,237.074C266.46,237.434 266.64,237.82 266.948,238.116C267.255,238.413 267.654,238.587 268.028,238.587C273.806,238.587 293.812,238.587 298.343,238.587C298.885,238.587 299.261,238.224 299.261,237.701C299.261,233.039 299.261,211.329 299.261,205.376Z" style="fill:none;stroke:white;stroke-width:1.74px;"/>
    </g>
    <g transform="matrix(0.658418,0,-0.178499,0.658418,174.942,15.3943)">
        <path d="M299.261,205.376C299.261,205.015 299.081,204.63 298.773,204.333C298.466,204.036 298.066,203.862 297.693,203.862C291.914,203.862 271.909,203.862 267.377,203.862C266.836,203.862 266.46,204.225 266.46,204.748C266.46,209.41 266.46,231.12 266.46,237.074C266.46,237.434 266.64,237.82 266.948,238.116C267.255,238.413 267.654,238.587 268.028,238.587C273.806,238.587 293.812,238.587 298.343,238.587C298.885,238.587 299.261,238.224 299.261,237.701C299.261,233.039 299.261,211.329 299.261,205.376Z" style="fill:none;stroke:white;stroke-width:1.74px;"/>
    </g>
    <g transform="matrix(0.658418,0,-0.178499,0.658418,202.252,15.3943)">
        <path d="M299.261,205.376C299.261,205.015 299.081,204.63 298.773,204.333C298.466,204.036 298.066,203.862 297.693,203.862C291.914,203.862 271.909,203.862 267.377,203.862C266.836,203.862 266.46,204.225 266.46,204.748C266.46,209.41 266.46,231.12 266.46,237.074C266.46,237.434 266.64,237.82 266.948,238.116C267.255,238.413 267.654,238.587 268.028,238.587C273.806,238.587 293.812,238.587 298.343,238.587C298.885,238.587 299.261,238.224 299.261,237.701C299.261,233.039 299.261,211.329 299.261,205.376Z" style="fill:none;stroke:white;stroke-width:1.74px;"/>
    </g>
    <g transform="matrix(0.658418,0,-0.178499,0.658418,229.562,15.3943)">
        <path d="M299.261,205.376C299.261,205.015 299.081,204.63 298.773,204.333C298.466,204.036 298.066,203.862 297.693,203.862C291.914,203.862 271.909,203.862 267.377,203.862C266.836,203.862 266.46,204.225 266.46,204.748C266.46,209.41 266.46,231.12 266.46,237.074C266.46,237.434 266.64,237.82 266.948,238.116C267.255,238.413 267.654,238.587 268.028,238.587C273.806,238.587 293.812,238.587 298.343,238.587C298.885,238.587 299.261,238.224 299.261,237.701C299.261,233.039 299.261,211.329 299.261,205.376Z" style="fill:none;stroke:white;stroke-width:1.74px;"/>
    </g>
    <g transform="matrix(0.658418,0,-0.178499,0.658418,256.872,15.3943)">
        <path d="M299.261,205.376C299.261,205.015 299.081,204.63 298.773,204.333C298.466,204.036 298.066,203.862 297.693,203.862C291.914,203.862 271.909,203.862 267.377,203.862C266.836,203.862 266.46,204.225 266.46,204.748C266.46,209.41 266.46,231.12 266.46,237.074C266.46,237.434 266.64,237.82 266.948,238.116C267.255,238.413 267.654,238.587 268.028,238.587C273.806,238.587 293.812,238.587 298.343,238.587C298.885,238.587 299.261,238.224 299.261,237.701C299.261,233.039 299.261,211.329 299.261,205.376Z" style="fill:none;stroke:white;stroke-width:1.74px;"/>
    </g>
    <g transform="matrix(0.658418,0,-0.178499,0.658418,284.182,15.3943)">
        <path d="M299.261,205.376C299.261,205.015 299.081,204.63 298.773,204.333C298.466,204.036 298.066,203.862 297.693,203.862C291.914,203.862 271.909,203.862 267.377,203.862C266.836,203.862 266.46,204.225 266.46,204.748C266.46,209.41 266.46,231.12 266.46,237.074C266.46,237.434 266.64,237.82 266.948,238.116C267.255,238.413 267.654,238.587 268.028,238.587C273.806,238.587 293.812,238.587 298.343,238.587C298.885,238.587 299.261,238.224 299.261,237.701C299.261,233.039 299.261,211.329 299.261,205.376Z" style="fill:none;stroke:white;stroke-width:1.74px;"/>
    </g>
    <g transform="matrix(0.658418,0,-0.178499,0.658418,311.491,15.3943)">
        <path d="M299.261,205.376C299.261,205.015 299.081,204.63 298.773,204.333C298.466,204.036 298.066,203.862 297.693,203.862C291.914,203.862 271.909,203.862 267.377,203.862C266.836,203.862 266.46,204.225 266.46,204.748C266.46,209.41 266.46,231.12 266.46,237.074C266.46,237.434 266.64,237.82 266.948,238.116C267.255,238.413 267.654,238.587 268.028,238.587C273.806,238.587 293.812,238.587 298.343,238.587C298.885,238.587 299.261,238.224 299.261,237.701C299.261,233.039 299.261,211.329 299.261,205.376Z" style="fill:none;stroke:white;stroke-width:1.74px;"/>
    </g>
    <g transform="matrix(1.71773,0,-0.178499,0.658418,52.1977,15.3943)">
        <path d="M299.956,205.376C299.956,204.314 299.482,203.862 299.2,203.862L269.424,203.862C269.113,203.862 268.995,204.235 268.995,204.748L268.991,237.074C268.991,238.044 269.332,238.587 269.651,238.587L299.428,238.587C299.779,238.587 299.952,238.371 299.952,237.701L299.956,205.376Z" style="fill:none;stroke:white;stroke-width:0.84px;"/>
    </g>
    <g transform="matrix(1.71773,0,-0.178499,0.658418,34.1964,41.8752)">
        <path d="M310.453,205.376C310.453,204.314 309.98,203.862 309.697,203.862L269.554,203.862C269.244,203.862 269.125,204.235 269.125,204.748L269.122,237.074C269.121,238.044 269.463,238.587 269.781,238.587L309.925,238.587C310.276,238.587 310.45,238.371 310.45,237.701L310.453,205.376Z" style="fill:none;stroke:white;stroke-width:0.84px;"/>
    </g>
    <g transform="matrix(1.71773,0,-0.178499,0.658418,-311.465,15.3943)">
        <path d="M303.099,205.376C303.099,204.314 302.625,203.862 302.343,203.862L279.497,203.862C279.187,203.862 279.068,204.235 279.068,204.748L279.064,237.074C279.064,238.044 279.405,238.587 279.724,238.587L302.571,238.587C302.922,238.587 303.095,238.371 303.095,237.701L303.099,205.376Z" style="fill:none;stroke:white;stroke-width:0.84px;"/>
    </g>
    <g transform="matrix(1.71773,0,-0.178499,0.658418,-314.072,-11.0865)">
        <path d="M299.956,205.376C299.956,204.314 299.482,203.862 299.2,203.862L281.518,203.862C281.207,203.862 281.089,204.235 281.089,204.748L281.085,237.074C281.085,238.044 281.426,238.587 281.744,238.587L299.428,238.587C299.779,238.587 299.952,238.371 299.952,237.701L299.956,205.376Z" style="fill:none;stroke:white;stroke-width:0.84px;"/>
    </g>
    <g transform="matrix(1.71773,0,-0.178499,0.658418,-314.935,68.3561)">
        <path d="M301.074,205.376C301.075,204.314 300.601,203.862 300.319,203.862L281.518,203.862C281.207,203.862 281.089,204.235 281.089,204.748L281.085,237.074C281.085,238.044 281.426,238.587 281.744,238.587L300.547,238.587C300.898,238.587 301.071,238.371 301.071,237.701L301.074,205.376Z" style="fill:none;stroke:white;stroke-width:0.84px;"/>
    </g>
    <g transform="matrix(1.71773,0,-0.178499,0.658418,-248.623,68.3561)">
        <path d="M301.076,205.376C301.077,204.314 300.603,203.862 300.321,203.862L281.518,203.862C281.207,203.862 281.089,204.235 281.089,204.748L281.085,237.074C281.085,238.044 281.426,238.587 281.744,238.587L300.548,238.587C300.9,238.587 301.073,238.371 301.073,237.701L301.076,205.376Z" style="fill:none;stroke:white;stroke-width:0.84px;"/>
    </g>
    <g transform="matrix(1.71773,0,-0.178499,0.658418,-39.6767,68.3561)">
        <path d="M297.573,205.376C297.573,204.314 297.099,203.862 296.817,203.862L278.612,203.862C278.301,203.862 278.183,204.235 278.183,204.748L278.179,237.074C278.179,238.044 278.52,238.587 278.838,238.587L297.045,238.587C297.396,238.587 297.569,238.371 297.569,237.701L297.573,205.376Z" style="fill:none;stroke:white;stroke-width:0.84px;"/>
    </g>
    <g transform="matrix(1.71773,0,-0.178499,0.658418,-208.559,68.3561)">
        <path d="M373.163,205.376C373.164,204.314 372.69,203.862 372.408,203.862L281.518,203.862C281.207,203.862 281.089,204.235 281.089,204.748L281.085,237.074C281.085,238.044 281.426,238.587 281.744,238.587L372.635,238.587C372.987,238.587 373.16,238.371 373.16,237.701L373.163,205.376Z" style="fill:none;stroke:white;stroke-width:0.84px;"/>
    </g>
    <g transform="matrix(1.71773,0,-0.178499,0.658418,76.9144,-11.0865)">
        <path d="M286.183,205.376C286.183,204.314 285.71,203.862 285.427,203.862L266.889,203.862C266.578,203.862 266.46,204.235 266.46,204.748L266.456,237.074C266.456,238.044 266.797,238.587 267.116,238.587L285.655,238.587C286.006,238.587 286.179,238.371 286.18,237.701L286.183,205.376Z" style="fill:none;stroke:white;stroke-width:0.84px;"/>
    </g>
    <g transform="matrix(1.71773,0,-0.178499,0.658418,66.1207,-37.5674)">
        <path d="M293.083,205.376C293.083,204.314 292.61,203.862 292.327,203.862L266.889,203.862C266.578,203.862 266.46,204.235 266.46,204.748L266.456,237.074C266.456,238.044 266.797,238.587 267.116,238.587L292.555,238.587C292.906,238.587 293.08,238.371 293.08,237.701L293.083,205.376Z" style="fill:none;stroke:white;stroke-width:0.84px;"/>
    </g>
    <g transform="matrix(0.658418,0,-0.178499,0.658418,58.7543,-11.0865)">
        <path d="M299.261,205.376C299.261,205.015 299.081,204.63 298.773,204.333C298.466,204.036 298.066,203.862 297.693,203.862C291.914,203.862 271.909,203.862 267.377,203.862C266.836,203.862 266.46,204.225 266.46,204.748C266.46,209.41 266.46,231.12 266.46,237.074C266.46,237.434 266.64,237.82 266.948,238.116C267.255,238.413 267.654,238.587 268.028,238.587C273.806,238.587 293.812,238.587 298.343,238.587C298.885,238.587 299.261,238.224 299.261,237.701C299.261,233.039 299.261,211.329 299.261,205.376Z" style="fill:none;stroke:white;stroke-width:1.74px;"/>
    </g>
    <g transform="matrix(0.658418,0,-0.178499,0.658418,86.0642,-11.0865)">
        <path d="M299.261,205.376C299.261,205.015 299.081,204.63 298.773,204.333C298.466,204.036 298.066,203.862 297.693,203.862C291.914,203.862 271.909,203.862 267.377,203.862C266.836,203.862 266.46,204.225 266.46,204.748C266.46,209.41 266.46,231.12 266.46,237.074C266.46,237.434 266.64,237.82 266.948,238.116C267.255,238.413 267.654,238.587 268.028,238.587C273.806,238.587 293.812,238.587 298.343,238.587C298.885,238.587 299.261,238.224 299.261,237.701C299.261,233.039 299.261,211.329 299.261,205.376Z" style="fill:none;stroke:white;stroke-width:1.74px;"/>
    </g>
    <g transform="matrix(0.658418,0,-0.178499,0.658418,113.374,-11.0865)">
        <path d="M299.261,205.376C299.261,205.015 299.081,204.63 298.773,204.333C298.466,204.036 298.066,203.862 297.693,203.862C291.914,203.862 271.909,203.862 267.377,203.862C266.836,203.862 266.46,204.225 266.46,204.748C266.46,209.41 266.46,231.12 266.46,237.074C266.46,237.434 266.64,237.82 266.948,238.116C267.255,238.413 267.654,238.587 268.028,238.587C273.806,238.587 293.812,238.587 298.343,238.587C298.885,238.587 299.261,238.224 299.261,237.701C299.261,233.039 299.261,211.329 299.261,205.376Z" style="fill:none;stroke:white;stroke-width:1.74px;"/>
    </g>
    <g transform="matrix(0.658418,0,-0.178499,0.658418,140.684,-11.0865)">
        <path d="M299.261,205.376C299.261,205.015 299.081,204.63 298.773,204.333C298.466,204.036 298.066,203.862 297.693,203.862C291.914,203.862 271.909,203.862 267.377,203.862C266.836,203.862 266.46,204.225 266.46,204.748C266.46,209.41 266.46,231.12 266.46,237.074C266.46,237.434 266.64,237.82 266.948,238.116C267.255,238.413 267.654,238.587 268.028,238.587C273.806,238.587 293.812,238.587 298.343,238.587C298.885,238.587 299.261,238.224 299.261,237.701C299.261,233.039 299.261,211.329 299.261,205.376Z" style="fill:none;stroke:white;stroke-width:1.74px;"/>
    </g>
    <g transform="matrix(0.658418,0,-0.178499,0.658418,167.994,-11.0865)">
        <path d="M299.261,205.376C299.261,205.015 299.081,204.63 298.773,204.333C298.466,204.036 298.066,203.862 297.693,203.862C291.914,203.862 271.909,203.862 267.377,203.862C266.836,203.862 266.46,204.225 266.46,204.748C266.46,209.41 266.46,231.12 266.46,237.074C266.46,237.434 266.64,237.82 266.948,238.116C267.255,238.413 267.654,238.587 268.028,238.587C273.806,238.587 293.812,238.587 298.343,238.587C298.885,238.587 299.261,238.224 299.261,237.701C299.261,233.039 299.261,211.329 299.261,205.376Z" style="fill:none;stroke:white;stroke-width:1.74px;"/>
    </g>
    <g transform="matrix(0.658418,0,-0.178499,0.658418,195.304,-11.0865)">
        <path d="M299.261,205.376C299.261,205.015 299.081,204.63 298.773,204.333C298.466,204.036 298.066,203.862 297.693,203.862C291.914,203.862 271.909,203.862 267.377,203.862C266.836,203.862 266.46,204.225 266.46,204.748C266.46,209.41 266.46,231.12 266.46,237.074C266.46,237.434 266.64,237.82 266.948,238.116C267.255,238.413 267.654,238.587 268.028,238.587C273.806,238.587 293.812,238.587 298.343,238.587C298.885,238.587 299.261,238.224 299.261,237.701C299.261,233.039 299.261,211.329 299.261,205.376Z" style="fill:none;stroke:white;stroke-width:1.74px;"/>
    </g>
    <g transform="matrix(0.658418,0,-0.178499,0.658418,222.614,-11.0865)">
        <path d="M299.261,205.376C299.261,205.015 299.081,204.63 298.773,204.333C298.466,204.036 298.066,203.862 297.693,203.862C291.914,203.862 271.909,203.862 267.377,203.862C266.836,203.862 266.46,204.225 266.46,204.748C266.46,209.41 266.46,231.12 266.46,237.074C266.46,237.434 266.64,237.82 266.948,238.116C267.255,238.413 267.654,238.587 268.028,238.587C273.806,238.587 293.812,238.587 298.343,238.587C298.885,238.587 299.261,238.224 299.261,237.701C299.261,233.039 299.261,211.329 299.261,205.376Z" style="fill:none;stroke:white;stroke-width:1.74px;"/>
    </g>
    <g transform="matrix(0.658418,0,-0.178499,0.658418,249.924,-11.0865)">
        <path d="M299.261,205.376C299.261,205.015 299.081,204.63 298.773,204.333C298.466,204.036 298.066,203.862 297.693,203.862C291.914,203.862 271.909,203.862 267.377,203.862C266.836,203.862 266.46,204.225 266.46,204.748C266.46,209.41 266.46,231.12 266.46,237.074C266.46,237.434 266.64,237.82 266.948,238.116C267.255,238.413 267.654,238.587 268.028,238.587C273.806,238.587 293.812,238.587 298.343,238.587C298.885,238.587 299.261,238.224 299.261,237.701C299.261,233.039 299.261,211.329 299.261,205.376Z" style="fill:none;stroke:white;stroke-width:1.74px;"/>
    </g>
    <g transform="matrix(0.658418,0,-0.178499,0.658418,277.234,-11.0865)">
        <path d="M299.261,205.376C299.261,205.015 299.081,204.63 298.773,204.333C298.466,204.036 298.066,203.862 297.693,203.862C291.914,203.862 271.909,203.862 267.377,203.862C266.836,203.862 266.46,204.225 266.46,204.748C266.46,209.41 266.46,231.12 266.46,237.074C266.46,237.434 266.64,237.82 266.948,238.116C267.255,238.413 267.654,238.587 268.028,238.587C273.806,238.587 293.812,238.587 298.343,238.587C298.885,238.587 299.261,238.224 299.261,237.701C299.261,233.039 299.261,211.329 299.261,205.376Z" style="fill:none;stroke:white;stroke-width:1.74px;"/>
    </g>
    <g transform="matrix(0.658418,0,-0.178499,0.658418,304.544,-11.0865)">
        <path d="M299.261,205.376C299.261,205.015 299.081,204.63 298.773,204.333C298.466,204.036 298.066,203.862 297.693,203.862C291.914,203.862 271.909,203.862 267.377,203.862C266.836,203.862 266.46,204.225 266.46,204.748C266.46,209.41 266.46,231.12 266.46,237.074C266.46,237.434 266.64,237.82 266.948,238.116C267.255,238.413 267.654,238.587 268.028,238.587C273.806,238.587 293.812,238.587 298.343,238.587C298.885,238.587 299.261,238.224 299.261,237.701C299.261,233.039 299.261,211.329 299.261,205.376Z" style="fill:none;stroke:white;stroke-width:1.74px;"/>
    </g>
    <g transform="matrix(0.658418,0,-0.178499,0.658418,331.854,-11.0865)">
        <path d="M299.261,205.376C299.261,205.015 299.081,204.63 298.773,204.333C298.466,204.036 298.066,203.862 297.693,203.862C291.914,203.862 271.909,203.862 267.377,203.862C266.836,203.862 266.46,204.225 266.46,204.748C266.46,209.41 266.46,231.12 266.46,237.074C266.46,237.434 266.64,237.82 266.948,238.116C267.255,238.413 267.654,238.587 268.028,238.587C273.806,238.587 293.812,238.587 298.343,238.587C298.885,238.587 299.261,238.224 299.261,237.701C299.261,233.039 299.261,211.329 299.261,205.376Z" style="fill:none;stroke:white;stroke-width:1.74px;"/>
    </g>
    <g transform="matrix(0.658418,0,-0.178499,0.658418,47.9605,-37.5674)">
        <path d="M299.261,205.376C299.261,205.015 299.081,204.63 298.773,204.333C298.466,204.036 298.066,203.862 297.693,203.862C291.914,203.862 271.909,203.862 267.377,203.862C266.836,203.862 266.46,204.225 266.46,204.748C266.46,209.41 266.46,231.12 266.46,237.074C266.46,237.434 266.64,237.82 266.948,238.116C267.255,238.413 267.654,238.587 268.028,238.587C273.806,238.587 293.812,238.587 298.343,238.587C298.885,238.587 299.261,238.224 299.261,237.701C299.261,233.039 299.261,211.329 299.261,205.376Z" style="fill:none;stroke:white;stroke-width:1.74px;"/>
    </g>
    <g transform="matrix(0.658418,0,-0.178499,0.658418,75.2705,-37.5674)">
        <path d="M299.261,205.376C299.261,205.015 299.081,204.63 298.773,204.333C298.466,204.036 298.066,203.862 297.693,203.862C291.914,203.862 271.909,203.862 267.377,203.862C266.836,203.862 266.46,204.225 266.46,204.748C266.46,209.41 266.46,231.12 266.46,237.074C266.46,237.434 266.64,237.82 266.948,238.116C267.255,238.413 267.654,238.587 268.028,238.587C273.806,238.587 293.812,238.587 298.343,238.587C298.885,238.587 299.261,238.224 299.261,237.701C299.261,233.039 299.261,211.329 299.261,205.376Z" style="fill:none;stroke:white;stroke-width:1.74px;"/>
    </g>
    <g transform="matrix(0.658418,0,-0.178499,0.658418,102.58,-37.5674)">
        <path d="M299.261,205.376C299.261,205.015 299.081,204.63 298.773,204.333C298.466,204.036 298.066,203.862 297.693,203.862C291.914,203.862 271.909,203.862 267.377,203.862C266.836,203.862 266.46,204.225 266.46,204.748C266.46,209.41 266.46,231.12 266.46,237.074C266.46,237.434 266.64,237.82 266.948,238.116C267.255,238.413 267.654,238.587 268.028,238.587C273.806,238.587 293.812,238.587 298.343,238.587C298.885,238.587 299.261,238.224 299.261,237.701C299.261,233.039 299.261,211.329 299.261,205.376Z" style="fill:none;stroke:white;stroke-width:1.74px;"/>
    </g>
    <g transform="matrix(0.658418,0,-0.178499,0.658418,129.89,-37.5674)">
        <path d="M299.261,205.376C299.261,205.015 299.081,204.63 298.773,204.333C298.466,204.036 298.066,203.862 297.693,203.862C291.914,203.862 271.909,203.862 267.377,203.862C266.836,203.862 266.46,204.225 266.46,204.748C266.46,209.41 266.46,231.12 266.46,237.074C266.46,237.434 266.64,237.82 266.948,238.116C267.255,238.413 267.654,238.587 268.028,238.587C273.806,238.587 293.812,238.587 298.343,238.587C298.885,238.587 299.261,238.224 299.261,237.701C299.261,233.039 299.261,211.329 299.261,205.376Z" style="fill:none;stroke:white;stroke-width:1.74px;"/>
    </g>
    <g transform="matrix(0.658418,0,-0.178499,0.658418,157.2,-37.5674)">
        <path d="M299.261,205.376C299.261,205.015 299.081,204.63 298.773,204.333C298.466,204.036 298.066,203.862 297.693,203.862C291.914,203.862 271.909,203.862 267.377,203.862C266.836,203.862 266.46,204.225 266.46,204.748C266.46,209.41 266.46,231.12 266.46,237.074C266.46,237.434 266.64,237.82 266.948,238.116C267.255,238.413 267.654,238.587 268.028,238.587C273.806,238.587 293.812,238.587 298.343,238.587C298.885,238.587 299.261,238.224 299.261,237.701C299.261,233.039 299.261,211.329 299.261,205.376Z" style="fill:none;stroke:white;stroke-width:1.74px;"/>
    </g>
    <g transform="matrix(0.658418,0,-0.178499,0.658418,184.51,-37.5674)">
        <path d="M299.261,205.376C299.261,205.015 299.081,204.63 298.773,204.333C298.466,204.036 298.066,203.862 297.693,203.862C291.914,203.862 271.909,203.862 267.377,203.862C266.836,203.862 266.46,204.225 266.46,204.748C266.46,209.41 266.46,231.12 266.46,237.074C266.46,237.434 266.64,237.82 266.948,238.116C267.255,238.413 267.654,238.587 268.028,238.587C273.806,238.587 293.812,238.587 298.343,238.587C298.885,238.587 299.261,238.224 299.261,237.701C299.261,233.039 299.261,211.329 299.261,205.376Z" style="fill:none;stroke:white;stroke-width:1.74px;"/>
    </g>
    <g transform="matrix(0.658418,0,-0.178499,0.658418,211.82,-37.5674)">
        <path d="M299.261,205.376C299.261,205.015 299.081,204.63 298.773,204.333C298.466,204.036 298.066,203.862 297.693,203.862C291.914,203.862 271.909,203.862 267.377,203.862C266.836,203.862 266.46,204.225 266.46,204.748C266.46,209.41 266.46,231.12 266.46,237.074C266.46,237.434 266.64,237.82 266.948,238.116C267.255,238.413 267.654,238.587 268.028,238.587C273.806,238.587 293.812,238.587 298.343,238.587C298.885,238.587 299.261,238.224 299.261,237.701C299.261,233.039 299.261,211.329 299.261,205.376Z" style="fill:none;stroke:white;stroke-width:1.74px;"/>
    </g>
    <g transform="matrix(0.658418,0,-0.178499,0.658418,239.13,-37.5674)">
        <path d="M299.261,205.376C299.261,205.015 299.081,204.63 298.773,204.333C298.466,204.036 298.066,203.862 297.693,203.862C291.914,203.862 271.909,203.862 267.377,203.862C266.836,203.862 266.46,204.225 266.46,204.748C266.46,209.41 266.46,231.12 266.46,237.074C266.46,237.434 266.64,237.82 266.948,238.116C267.255,238.413 267.654,238.587 268.028,238.587C273.806,238.587 293.812,238.587 298.343,238.587C298.885,238.587 299.261,238.224 299.261,237.701C299.261,233.039 299.261,211.329 299.261,205.376Z" style="fill:none;stroke:white;stroke-width:1.74px;"/>
    </g>
    <g transform="matrix(0.658418,0,-0.178499,0.658418,266.44,-37.5674)">
        <path d="M299.261,205.376C299.261,205.015 299.081,204.63 298.773,204.333C298.466,204.036 298.066,203.862 297.693,203.862C291.914,203.862 271.909,203.862 267.377,203.862C266.836,203.862 266.46,204.225 266.46,204.748C266.46,209.41 266.46,231.12 266.46,237.074C266.46,237.434 266.64,237.82 266.948,238.116C267.255,238.413 267.654,238.587 268.028,238.587C273.806,238.587 293.812,238.587 298.343,238.587C298.885,238.587 299.261,238.224 299.261,237.701C299.261,233.039 299.261,211.329 299.261,205.376Z" style="fill:none;stroke:white;stroke-width:1.74px;"/>
    </g>
    <g transform="matrix(0.658418,0,-0.178499,0.658418,293.75,-37.5674)">
        <path d="M299.261,205.376C299.261,205.015 299.081,204.63 298.773,204.333C298.466,204.036 298.066,203.862 297.693,203.862C291.914,203.862 271.909,203.862 267.377,203.862C266.836,203.862 266.46,204.225 266.46,204.748C266.46,209.41 266.46,231.12 266.46,237.074C266.46,237.434 266.64,237.82 266.948,238.116C267.255,238.413 267.654,238.587 268.028,238.587C273.806,238.587 293.812,238.587 298.343,238.587C298.885,238.587 299.261,238.224 299.261,237.701C299.261,233.039 299.261,211.329 299.261,205.376Z" style="fill:none;stroke:white;stroke-width:1.74px;"/>
    </g>
    <g transform="matrix(0.658418,0,-0.178499,0.658418,321.06,-37.5674)">
        <path d="M299.261,205.376C299.261,205.015 299.081,204.63 298.773,204.333C298.466,204.036 298.066,203.862 297.693,203.862C291.914,203.862 271.909,203.862 267.377,203.862C266.836,203.862 266.46,204.225 266.46,204.748C266.46,209.41 266.46,231.12 266.46,237.074C266.46,237.434 266.64,237.82 266.948,238.116C267.255,238.413 267.654,238.587 268.028,238.587C273.806,238.587 293.812,238.587 298.343,238.587C298.885,238.587 299.261,238.224 299.261,237.701C299.261,233.039 299.261,211.329 299.261,205.376Z" style="fill:none;stroke:white;stroke-width:1.74px;"/>
    </g>
</svg>